<svg xmlns="http://www.w3.org/2000/svg" xmlns:xlink="http://www.w3.org/1999/xlink" preserveAspectRatio="xMidYMid" width="526.381" height="99.997" viewBox="0 0 1037 197">
  <defs>
    <style>
      .cls-1 {
        fill: #1a73e8;
      }

      .cls-1, .cls-2, .cls-3 {
        fill-rule: evenodd;
      }

      .cls-2 {
        fill: #fcbb02;
      }

      .cls-3 {
        fill: #66bc46;
      }
    </style>
  </defs>
  <path d="M1036.136,104.793 L1034.785,115.469 L956.408,115.469 C957.309,128.415 965.642,136.819 978.705,136.819 C989.741,136.819 998.074,131.141 1004.830,123.418 L1026.001,140.907 C1013.164,154.763 994.245,162.712 976.678,162.712 C942.895,162.712 919.022,139.999 923.976,104.793 C928.931,69.588 959.111,46.874 992.894,46.874 C1024.425,46.874 1041.091,69.588 1036.136,104.793 ZM986.362,71.405 C971.498,71.405 961.813,81.626 959.561,92.301 L1004.155,92.301 C1005.956,80.944 998.524,71.405 986.362,71.405 ZM911.208,77.898 C884.881,77.898 879.570,93.203 876.568,115.698 L869.871,162.773 L835.231,162.773 L850.934,50.070 L885.574,50.070 L883.034,68.158 L883.496,68.158 C892.964,54.476 903.587,47.288 918.828,47.288 C922.754,47.288 927.142,47.519 930.144,48.447 L925.756,80.217 C921.138,78.826 916.288,77.898 911.208,77.898 ZM790.066,162.773 L790.612,158.613 C783.874,161.249 776.698,162.704 769.380,162.704 C738.900,162.704 717.509,137.521 721.604,106.455 C725.698,75.390 753.727,50.207 784.208,50.207 C791.500,50.207 798.270,51.652 804.297,54.270 L804.847,50.070 L839.487,50.070 L824.706,162.773 L790.066,162.773 ZM780.278,80.019 C765.952,80.019 752.779,91.855 750.854,106.455 C748.930,121.056 758.984,132.892 773.310,132.892 C787.635,132.892 800.809,121.056 802.733,106.455 C804.658,91.855 794.604,80.019 780.278,80.019 ZM671.188,162.773 L671.707,158.623 C664.976,161.253 657.810,162.704 650.502,162.704 C620.021,162.704 598.631,137.521 602.725,106.455 C606.820,75.390 634.848,50.207 665.329,50.207 C672.368,50.207 678.920,51.552 684.787,54.000 L688.640,23.180 L726.472,3.773 L705.828,162.773 L671.188,162.773 ZM661.400,80.019 C647.074,80.019 633.900,91.855 631.976,106.455 C630.052,121.056 640.105,132.892 654.431,132.892 C668.757,132.892 681.931,121.056 683.855,106.455 C685.779,91.855 675.726,80.019 661.400,80.019 ZM587.221,162.773 L552.581,162.773 L560.202,107.581 C562.049,94.595 564.128,77.898 546.346,77.898 C528.333,77.898 523.715,92.044 521.636,106.654 L513.785,162.773 L479.145,162.773 L494.848,50.070 L528.102,50.070 L526.024,65.376 L526.486,65.376 C532.259,56.564 544.960,47.288 561.818,47.288 C596.920,47.288 600.153,70.477 595.997,100.624 L587.221,162.773 ZM476.837,115.469 L398.461,115.469 C399.362,128.415 407.695,136.819 420.757,136.819 C431.793,136.819 440.126,131.141 446.883,123.418 L468.054,140.907 C455.216,154.763 436.298,162.712 418.730,162.712 C384.947,162.712 361.074,139.999 366.029,104.793 C370.984,69.588 401.163,46.874 434.946,46.874 C466.477,46.874 483.143,69.588 478.189,104.793 L476.837,115.469 ZM428.415,71.405 C413.550,71.405 403.866,81.626 401.614,92.301 L446.207,92.301 C448.009,80.944 440.577,71.405 428.415,71.405 ZM357.841,78.289 L337.242,78.289 L333.317,112.157 C331.544,124.216 331.830,133.028 346.840,133.028 C350.535,133.028 357.922,132.564 361.369,129.781 L357.392,158.769 C349.557,161.551 340.786,162.247 332.703,162.247 C309.610,162.247 293.155,152.739 296.467,128.158 L310.450,22.654 L347.568,3.615 L340.996,50.461 L361.594,50.461 L357.841,78.289 ZM246.913,162.773 L247.458,158.613 C240.720,161.249 233.545,162.704 226.227,162.704 C195.746,162.704 174.356,137.521 178.450,106.455 C182.545,75.390 210.573,50.207 241.054,50.207 C248.346,50.207 255.116,51.652 261.143,54.270 L261.694,50.070 L296.334,50.070 L281.553,162.773 L246.913,162.773 ZM237.125,80.019 C222.799,80.019 209.626,91.855 207.701,106.455 C205.777,121.056 215.830,132.892 230.156,132.892 C244.482,132.892 257.656,121.056 259.580,106.455 C261.504,91.855 251.451,80.019 237.125,80.019 Z" class="cls-1"/>
  <g>
    <path d="M40.193,0.914 C58.003,4.959 90.699,23.878 135.932,6.470 C181.165,-10.938 128.757,22.787 100.759,22.883 C85.032,22.936 62.241,16.570 48.443,10.076 C37.679,5.009 32.388,-0.859 40.193,0.914 Z" class="cls-1"/>
    <path d="M173.056,14.904 C113.386,58.618 111.542,67.189 108.355,124.322 C107.749,135.195 101.305,136.454 101.460,123.927 C102.185,65.286 104.763,50.176 168.504,6.147 C177.274,0.089 182.290,8.139 173.056,14.904 Z" class="cls-2"/>
    <path d="M86.701,189.408 C88.319,67.656 61.775,39.786 8.166,14.405 C-6.909,9.198 1.518,-4.152 12.446,1.229 C77.855,33.436 101.946,59.341 94.571,189.763 C94.028,199.357 86.566,199.596 86.701,189.408 Z" class="cls-3"/>
  </g>
</svg>
